<?xml version="1.0" standalone="no"?><!DOCTYPE svg PUBLIC "-//W3C//DTD SVG 1.1//EN" "http://www.w3.org/Graphics/SVG/1.1/DTD/svg11.dtd"><svg class="icon" width="200px" height="200.00px" viewBox="0 0 1024 1024" version="1.1" xmlns="http://www.w3.org/2000/svg"><path d="M0 512.182857c0 282.002286 228.681143 510.683429 510.683429 510.683429s510.683429-228.681143 510.683428-510.683429C1021.476571 230.070857 792.795429 1.389714 510.683429 1.389714 228.681143 1.389714 0 230.070857 0 512.182857z" fill="#d6ecfa" /><path d="M885.357714 857.161143c-13.641143-71.68-139.593143-140.141714-252.525714-177.517714-5.485714-1.828571-39.899429-17.334857-18.358857-82.578286h-0.219429c56.100571-57.673143 98.962286-150.564571 98.962286-241.993143 0-140.470857-93.586286-214.235429-202.422857-214.235429S308.845714 214.454857 308.845714 355.072c0 91.757714 42.642286 184.978286 99.072 242.578286 22.016 57.563429-17.298286 79.030857-25.563428 81.993143-107.446857 38.765714-232.338286 107.702857-246.125715 177.517714A506.697143 506.697143 0 0 1 0 511.378286C0 229.741714 228.681143 1.389714 510.683429 1.389714s510.683429 228.352 510.683428 509.988572c0.146286 133.632-51.821714 254.829714-136.009143 345.782857" fill="#568ec4" /></svg>